<?xml version="1.0" encoding="utf-8"?>

<!-- License Agreement at http://iconmonstr.com/license/ -->

<!DOCTYPE svg PUBLIC "-//W3C//DTD SVG 1.1//EN" "http://www.w3.org/Graphics/SVG/1.1/DTD/svg11.dtd">
<svg version="1.1" xmlns="http://www.w3.org/2000/svg" xmlns:xlink="http://www.w3.org/1999/xlink" x="0px" y="0px"
	 width="512px" height="512px" viewBox="0 0 512 512" enable-background="new 0 0 512 512" xml:space="preserve">
<path id="light-bulb-11-icon" d="M214.786,437.981h82.428C274.446,458.277,272.366,462,263.924,462h-16.636
	C238.651,462,236.423,457.983,214.786,437.981z M297.785,401.497h-83.57c-6.138,0-11.114,4.976-11.114,11.113
	c0,6.137,4.976,11.112,11.114,11.112h83.571c6.137,0,11.112-4.976,11.112-11.112C308.898,406.473,303.923,401.497,297.785,401.497z
	 M299.785,364.496h-87.57c-6.138,0-11.114,4.976-11.114,11.113c0,6.137,4.976,11.112,11.114,11.112h87.571
	c6.137,0,11.112-4.976,11.112-11.112C310.898,369.472,305.923,364.496,299.785,364.496z M382.51,171.709
	c0,75.243-66.71,117.411-66.71,176.788H196.2c0-59.377-66.709-101.545-66.709-176.788C129.49,93.207,192.698,50,255.93,50
	C319.208,50,382.51,93.266,382.51,171.709z M259.78,107.398l-4.536-24.588c-50.718,11.047-78.053,48.055-85.782,90.884l24.448,5.225
	C199.936,150.724,214.621,120.192,259.78,107.398z"/>
</svg>
