<?xml version="1.0" encoding="utf-8"?>

<!-- License Agreement at http://iconmonstr.com/license/ -->

<!DOCTYPE svg PUBLIC "-//W3C//DTD SVG 1.1//EN" "http://www.w3.org/Graphics/SVG/1.1/DTD/svg11.dtd">
<svg version="1.1" xmlns="http://www.w3.org/2000/svg" xmlns:xlink="http://www.w3.org/1999/xlink" x="0px" y="0px"
	 width="512px" height="512px" viewBox="0 0 512 512" style="enable-background:new 0 0 512 512;" xml:space="preserve">
<path id="flask-icon" d="M174.75,70c0-11.046,8.954-20,20-20h122.5c11.046,0,20,8.954,20,20s-8.954,20-20,20h-122.5
	C183.704,90,174.75,81.046,174.75,70z M407.76,401.879l-64.847-134.865c-18.044-37.528-27.413-78.635-27.413-120.275V120h-39.775
	c0,28.335-4.785,89.631,31.14,164.348c36.038,74.95,52.017,108.201,59.292,123.322c3.184,6.613-1.623,14.33-9.016,14.33H154.868
	c-7.369,0-12.201-7.719-9.014-14.335c7.286-15.124,23.249-48.377,59.282-123.319C240.35,211.109,236.218,151.387,236.218,120H196.5
	v26.739c0,41.64-9.369,82.746-27.413,120.273L104.241,401.88C90.865,429.696,111.179,462,142.043,462h227.915
	C400.824,462,421.134,429.696,407.76,401.879z"/>
</svg>
